<?xml version="1.0" encoding="utf-8"?>
<!-- Generator: Adobe Illustrator 25.2.0, SVG Export Plug-In . SVG Version: 6.00 Build 0)  -->
<svg version="1.1" id="Layer_1" xmlns="http://www.w3.org/2000/svg" xmlns:xlink="http://www.w3.org/1999/xlink" x="0px" y="0px"
	 viewBox="0 0 343 500" style="enable-background:new 0 0 343 500;" xml:space="preserve">
<style type="text/css">
	.st0{fill:#8873EF;}
	.st1{fill:none;}
</style>
<path class="st0" d="M171.5,0L171.5,0C266.2,0,343,76.8,343,171.5v157c0,94.7-76.8,171.5-171.5,171.5l0,0C76.8,500,0,423.2,0,328.5
	v-157C0,76.8,76.8,0,171.5,0z"/>
<path class="st1" d="M171.5,70L171.5,70C266.2,70,343,146.8,343,241.5v87c0,94.7-76.8,171.5-171.5,171.5l0,0
	C76.8,500,0,423.2,0,328.5v-87C0,146.8,76.8,70,171.5,70z"/>
<image style="overflow:visible;enable-background:new    ;" width="433" height="577" xlink:href="C:\Users\ABOUZAR IJAZ\Downloads\IMG_1225-removebg-preview (1).png"  transform="matrix(0.8834 0 0 0.8414 -51.5 -44.11)">
</image>
</svg>
